<mxfile host="app.diagrams.net" agent="Mozilla/5.0 (Windows NT 10.0; Win64; x64) AppleWebKit/537.36 (KHTML, like Gecko) Chrome/138.0.0.0 Safari/537.36 Edg/138.0.0.0" version="28.0.4">
  <diagram name="第 1 页" id="byE5hjKe08-NjzLGIJ5R">
    <mxGraphModel dx="1228" dy="815" grid="1" gridSize="10" guides="1" tooltips="1" connect="1" arrows="1" fold="1" page="1" pageScale="1" pageWidth="827" pageHeight="1169" background="#ffffff" math="0" shadow="0">
      <root>
        <mxCell id="0" />
        <mxCell id="1" parent="0" />
        <mxCell id="SDIvAjRji_HbcQciytWg-1" value="&lt;font style=&quot;font-size: 14px;&quot;&gt;&lt;b&gt;使用EDC翻译功能&lt;/b&gt;&lt;/font&gt;" style="ellipse;whiteSpace=wrap;html=1;fillColor=#dae8fc;strokeColor=#6c8ebf;" parent="1" vertex="1">
          <mxGeometry x="40" y="280" width="150" height="80" as="geometry" />
        </mxCell>
        <mxCell id="SDIvAjRji_HbcQciytWg-2" value="&lt;font style=&quot;font-size: 14px;&quot;&gt;&lt;b&gt;系统自动提取需要翻译的数据（字符类型）&lt;/b&gt;&lt;/font&gt;" style="rounded=1;whiteSpace=wrap;html=1;fillColor=#fff2cc;strokeColor=#d6b656;" parent="1" vertex="1">
          <mxGeometry x="440" y="290" width="150" height="60" as="geometry" />
        </mxCell>
        <mxCell id="SDIvAjRji_HbcQciytWg-3" value="&lt;span style=&quot;font-size: 14px;&quot;&gt;&lt;b&gt;调用大语言翻译接口对字符数据进行翻译&lt;/b&gt;&lt;/span&gt;" style="rounded=1;whiteSpace=wrap;html=1;fillColor=#fff2cc;strokeColor=#d6b656;" parent="1" vertex="1">
          <mxGeometry x="640" y="290" width="150" height="60" as="geometry" />
        </mxCell>
        <mxCell id="SDIvAjRji_HbcQciytWg-4" value="&lt;span style=&quot;font-size: 14px;&quot;&gt;&lt;b&gt;建库时表单调用标准库中的英文Label、英文Dictionary&lt;/b&gt;&lt;/span&gt;" style="rounded=1;whiteSpace=wrap;html=1;fillColor=#fff2cc;strokeColor=#d6b656;" parent="1" vertex="1">
          <mxGeometry x="240" y="290" width="150" height="60" as="geometry" />
        </mxCell>
        <mxCell id="SDIvAjRji_HbcQciytWg-6" value="&lt;span style=&quot;font-size: 14px;&quot;&gt;&lt;b&gt;医学经理对翻译后的结果进行审核&lt;/b&gt;&lt;/span&gt;" style="rounded=1;whiteSpace=wrap;html=1;fillColor=#fff2cc;strokeColor=#d6b656;" parent="1" vertex="1">
          <mxGeometry x="840" y="290" width="150" height="60" as="geometry" />
        </mxCell>
        <mxCell id="SDIvAjRji_HbcQciytWg-8" value="&lt;span style=&quot;font-size: 14px;&quot;&gt;&lt;b&gt;导出报告（Excel、&lt;/b&gt;&lt;/span&gt;&lt;div&gt;&lt;span style=&quot;font-size: 14px;&quot;&gt;&lt;b&gt;SAS、PDF）&lt;/b&gt;&lt;/span&gt;&lt;/div&gt;" style="rounded=1;whiteSpace=wrap;html=1;fillColor=#fff2cc;strokeColor=#d6b656;" parent="1" vertex="1">
          <mxGeometry x="840" y="490" width="150" height="60" as="geometry" />
        </mxCell>
        <mxCell id="SDIvAjRji_HbcQciytWg-9" value="&lt;font style=&quot;font-size: 14px;&quot;&gt;&lt;b&gt;审核是否通过&lt;/b&gt;&lt;/font&gt;" style="rhombus;whiteSpace=wrap;html=1;fillColor=#f8cecc;strokeColor=#b85450;" parent="1" vertex="1">
          <mxGeometry x="840" y="380" width="150" height="80" as="geometry" />
        </mxCell>
        <mxCell id="SDIvAjRji_HbcQciytWg-10" value="&lt;span style=&quot;font-size: 14px;&quot;&gt;&lt;b&gt;翻译工作结束&lt;/b&gt;&lt;/span&gt;" style="ellipse;whiteSpace=wrap;html=1;fillColor=#dae8fc;strokeColor=#6c8ebf;" parent="1" vertex="1">
          <mxGeometry x="640" y="480" width="150" height="80" as="geometry" />
        </mxCell>
        <mxCell id="SDIvAjRji_HbcQciytWg-11" value="" style="endArrow=classic;html=1;rounded=0;exitX=1;exitY=0.5;exitDx=0;exitDy=0;entryX=0;entryY=0.5;entryDx=0;entryDy=0;" parent="1" source="SDIvAjRji_HbcQciytWg-1" target="SDIvAjRji_HbcQciytWg-4" edge="1">
          <mxGeometry width="50" height="50" relative="1" as="geometry">
            <mxPoint x="350" y="170" as="sourcePoint" />
            <mxPoint x="400" y="120" as="targetPoint" />
          </mxGeometry>
        </mxCell>
        <mxCell id="SDIvAjRji_HbcQciytWg-12" value="" style="endArrow=classic;html=1;rounded=0;exitX=1;exitY=0.5;exitDx=0;exitDy=0;entryX=0;entryY=0.5;entryDx=0;entryDy=0;" parent="1" source="SDIvAjRji_HbcQciytWg-4" target="SDIvAjRji_HbcQciytWg-2" edge="1">
          <mxGeometry width="50" height="50" relative="1" as="geometry">
            <mxPoint x="570" y="200" as="sourcePoint" />
            <mxPoint x="620" y="150" as="targetPoint" />
          </mxGeometry>
        </mxCell>
        <mxCell id="SDIvAjRji_HbcQciytWg-13" value="" style="endArrow=classic;html=1;rounded=0;exitX=1;exitY=0.5;exitDx=0;exitDy=0;entryX=0;entryY=0.5;entryDx=0;entryDy=0;" parent="1" source="SDIvAjRji_HbcQciytWg-2" target="SDIvAjRji_HbcQciytWg-3" edge="1">
          <mxGeometry width="50" height="50" relative="1" as="geometry">
            <mxPoint x="810" y="210" as="sourcePoint" />
            <mxPoint x="860" y="160" as="targetPoint" />
          </mxGeometry>
        </mxCell>
        <mxCell id="SDIvAjRji_HbcQciytWg-14" value="" style="endArrow=classic;html=1;rounded=0;exitX=1;exitY=0.5;exitDx=0;exitDy=0;entryX=0;entryY=0.5;entryDx=0;entryDy=0;" parent="1" source="SDIvAjRji_HbcQciytWg-3" target="SDIvAjRji_HbcQciytWg-6" edge="1">
          <mxGeometry width="50" height="50" relative="1" as="geometry">
            <mxPoint x="900" y="220" as="sourcePoint" />
            <mxPoint x="950" y="170" as="targetPoint" />
          </mxGeometry>
        </mxCell>
        <mxCell id="SDIvAjRji_HbcQciytWg-15" value="" style="endArrow=classic;html=1;rounded=0;exitX=0.5;exitY=1;exitDx=0;exitDy=0;entryX=0.5;entryY=0;entryDx=0;entryDy=0;" parent="1" source="SDIvAjRji_HbcQciytWg-6" target="SDIvAjRji_HbcQciytWg-9" edge="1">
          <mxGeometry width="50" height="50" relative="1" as="geometry">
            <mxPoint x="1010" y="210" as="sourcePoint" />
            <mxPoint x="1060" y="160" as="targetPoint" />
          </mxGeometry>
        </mxCell>
        <mxCell id="SDIvAjRji_HbcQciytWg-16" value="" style="endArrow=classic;html=1;rounded=0;exitX=0.5;exitY=1;exitDx=0;exitDy=0;" parent="1" source="SDIvAjRji_HbcQciytWg-9" target="SDIvAjRji_HbcQciytWg-8" edge="1">
          <mxGeometry width="50" height="50" relative="1" as="geometry">
            <mxPoint x="1040" y="170" as="sourcePoint" />
            <mxPoint x="1090" y="120" as="targetPoint" />
          </mxGeometry>
        </mxCell>
        <mxCell id="SDIvAjRji_HbcQciytWg-17" value="" style="endArrow=classic;html=1;rounded=0;exitX=0;exitY=0.5;exitDx=0;exitDy=0;entryX=1;entryY=0.5;entryDx=0;entryDy=0;" parent="1" source="SDIvAjRji_HbcQciytWg-8" target="SDIvAjRji_HbcQciytWg-10" edge="1">
          <mxGeometry width="50" height="50" relative="1" as="geometry">
            <mxPoint x="920" y="650" as="sourcePoint" />
            <mxPoint x="970" y="600" as="targetPoint" />
          </mxGeometry>
        </mxCell>
        <mxCell id="SDIvAjRji_HbcQciytWg-18" value="是" style="text;html=1;align=center;verticalAlign=middle;whiteSpace=wrap;rounded=0;" parent="1" vertex="1">
          <mxGeometry x="900" y="460" width="60" height="30" as="geometry" />
        </mxCell>
        <mxCell id="SDIvAjRji_HbcQciytWg-20" value="" style="endArrow=classic;html=1;rounded=0;edgeStyle=orthogonalEdgeStyle;exitX=1;exitY=0.5;exitDx=0;exitDy=0;entryX=0.44;entryY=0;entryDx=0;entryDy=0;entryPerimeter=0;" parent="1" source="SDIvAjRji_HbcQciytWg-9" target="SDIvAjRji_HbcQciytWg-3" edge="1">
          <mxGeometry width="50" height="50" relative="1" as="geometry">
            <mxPoint x="1040" y="230" as="sourcePoint" />
            <mxPoint x="1090" y="180" as="targetPoint" />
            <Array as="points">
              <mxPoint x="1020" y="420" />
              <mxPoint x="1020" y="260" />
              <mxPoint x="706" y="260" />
            </Array>
          </mxGeometry>
        </mxCell>
        <mxCell id="SDIvAjRji_HbcQciytWg-21" value="否" style="text;html=1;align=center;verticalAlign=middle;whiteSpace=wrap;rounded=0;" parent="1" vertex="1">
          <mxGeometry x="1004" y="305" width="60" height="30" as="geometry" />
        </mxCell>
      </root>
    </mxGraphModel>
  </diagram>
</mxfile>
